<?xml version="1.0" standalone="no"?>
<!DOCTYPE svg PUBLIC "-//W3C//DTD SVG 20010904//EN"
 "http://www.w3.org/TR/2001/REC-SVG-20010904/DTD/svg10.dtd">
<svg version="1.0" xmlns="http://www.w3.org/2000/svg"
 width="1080.000000pt" height="1080.000000pt" viewBox="0 0 1080.000000 1080.000000"
 preserveAspectRatio="xMidYMid meet">

<g transform="translate(0.000000,1080.000000) scale(0.100000,-0.100000)"
fill="#000000" stroke="none">
<path d="M6654 9163 c-4 -10 -15 -36 -25 -58 -18 -39 -18 -39 3 -62 12 -13 25
-23 30 -23 5 0 43 -16 85 -36 41 -19 88 -38 104 -41 31 -6 47 -36 30 -56 -5
-7 -26 -49 -45 -94 -35 -82 -47 -110 -130 -285 -25 -54 -46 -101 -46 -105 0
-4 -9 -25 -19 -47 -64 -137 -81 -178 -76 -187 7 -11 132 -69 150 -69 6 0 22
24 35 53 13 28 34 77 47 107 35 77 54 121 107 233 25 54 46 102 46 107 0 5 11
30 24 57 13 26 38 78 55 116 17 37 33 67 36 67 2 0 48 -20 101 -45 53 -25 99
-45 103 -45 3 0 23 -9 42 -19 l37 -20 31 68 c32 70 37 91 22 91 -5 0 -57 23
-116 50 -59 28 -109 50 -112 50 -6 0 -20 6 -163 74 -173 81 -306 136 -327 136
-14 0 -26 -8 -29 -17z"/>
<path d="M5331 9119 c-60 -21 -100 -54 -137 -111 -13 -21 -28 -38 -33 -38 -5
0 -11 27 -13 60 -2 33 -9 64 -14 70 -5 5 -39 6 -79 2 l-70 -7 1 -40 c8 -213
26 -477 34 -505 5 -19 10 -65 10 -102 0 -37 3 -69 8 -71 4 -3 43 -2 86 1 l79
5 -7 151 c-3 83 -9 186 -13 228 l-6 77 49 49 c33 32 64 53 94 61 25 7 57 19
71 27 25 13 26 14 17 81 -5 37 -12 71 -16 75 -4 4 -31 -2 -61 -13z"/>
<path d="M4400 8988 c-94 -35 -183 -114 -222 -196 -33 -70 -32 -224 1 -304 13
-32 27 -58 32 -58 5 0 9 -6 9 -14 0 -24 75 -92 134 -121 52 -25 67 -28 165
-28 100 0 114 3 174 30 35 17 83 47 105 68 50 44 94 118 90 148 -3 20 -9 22
-74 25 l-72 3 -11 -32 c-12 -34 -62 -85 -97 -99 -22 -9 -67 -13 -125 -11 -40
1 -109 53 -134 101 -15 28 -14 29 23 40 20 6 46 15 57 20 11 4 46 13 77 20 32
6 60 16 63 21 4 5 19 9 35 9 16 0 47 6 67 14 21 8 52 17 68 21 17 3 54 13 83
22 l53 15 -6 41 c-18 108 -115 225 -220 265 -76 30 -197 29 -275 0z m210 -132
c43 -24 80 -69 80 -96 0 -16 -31 -28 -175 -68 -38 -11 -94 -27 -124 -35 -30
-9 -58 -14 -63 -11 -14 9 -8 78 11 119 49 106 172 147 271 91z"/>
<path d="M3705 8701 c-126 -35 -213 -124 -230 -233 -3 -21 -9 -38 -13 -38 -5
0 -21 22 -37 48 l-29 49 -58 -35 c-32 -19 -61 -39 -64 -44 -3 -5 2 -21 12 -36
10 -15 30 -49 44 -77 14 -27 41 -76 60 -108 66 -112 78 -132 99 -172 11 -22
36 -64 56 -93 19 -30 35 -56 35 -59 0 -3 22 -42 48 -87 27 -45 52 -88 55 -96
20 -43 76 -136 88 -143 9 -6 37 4 82 30 77 43 79 53 29 128 -15 22 -32 51 -39
65 -7 14 -17 32 -22 40 -34 52 -92 162 -88 166 3 3 34 -2 71 -10 58 -14 73
-14 122 -1 97 25 165 81 204 169 19 42 21 63 18 145 -3 84 -7 104 -36 164 -51
104 -120 171 -220 213 -44 18 -145 26 -187 15z m120 -186 c62 -30 75 -41 102
-85 37 -60 47 -122 33 -190 -14 -64 -33 -88 -96 -120 -51 -27 -100 -25 -167 5
-43 18 -61 34 -77 62 -11 21 -34 63 -51 93 l-31 55 16 45 c28 74 57 110 111
136 63 30 97 30 160 -1z"/>
<path d="M5832 8548 c-12 -15 -31 -154 -23 -166 3 -5 22 -12 41 -15 19 -4 47
-10 61 -13 25 -5 26 -3 43 69 10 41 16 83 14 92 -2 12 -20 22 -53 31 -63 17
-70 17 -83 2z"/>
<path d="M7330 8370 c-67 -37 -149 -121 -181 -186 -21 -42 -24 -64 -24 -154 0
-125 17 -170 92 -248 70 -72 114 -101 185 -123 76 -23 143 -24 193 -3 42 17
41 23 -7 88 l-33 44 -67 0 c-77 -1 -136 27 -178 84 -31 43 -39 136 -16 192
l16 37 47 -35 c27 -20 54 -41 62 -48 8 -7 49 -40 91 -73 42 -33 111 -88 154
-122 42 -35 83 -63 90 -63 17 0 49 36 76 85 85 151 59 317 -68 442 -93 90
-133 107 -267 110 -106 3 -112 2 -165 -27z m278 -125 c26 -13 54 -30 63 -37
24 -20 59 -101 59 -137 0 -29 -33 -111 -46 -111 -8 0 -91 61 -132 98 -20 18
-55 45 -77 60 -22 15 -51 37 -64 49 -25 22 -25 22 -5 44 24 27 90 57 127 58
15 1 49 -10 75 -24z"/>
<path d="M3000 8170 c-64 -12 -128 -51 -192 -118 -83 -86 -102 -135 -103 -257
0 -91 3 -105 28 -154 40 -75 106 -142 179 -181 59 -31 69 -33 163 -33 79 0
109 4 140 19 152 74 248 209 249 349 0 57 -21 143 -41 166 -7 8 -13 21 -13 28
0 27 -106 124 -165 151 -67 31 -170 44 -245 30z m147 -181 c139 -67 188 -244
95 -342 -40 -42 -75 -57 -134 -57 -168 0 -298 207 -210 334 55 80 161 108 249
65z"/>
<path d="M8055 7840 c-25 -50 -26 -70 -2 -70 22 -1 102 -45 136 -75 52 -47 81
-104 81 -161 -1 -52 -20 -84 -72 -118 -25 -16 -26 -16 -37 11 -37 93 -131 207
-201 243 -48 24 -136 34 -187 21 -27 -7 -54 -26 -82 -56 -51 -55 -61 -81 -61
-151 0 -85 47 -172 121 -225 36 -25 125 -59 156 -59 32 0 38 -18 14 -44 -15
-15 -21 -35 -21 -65 0 -37 6 -49 39 -82 21 -22 43 -39 48 -39 16 0 116 97 110
107 -11 17 20 49 127 132 122 94 168 146 191 219 15 46 16 62 6 106 -27 123
-144 265 -265 324 -36 18 -68 32 -71 32 -2 0 -16 -23 -30 -50z m-103 -301 c53
-27 75 -52 118 -132 l35 -65 -29 -24 c-43 -35 -83 -46 -129 -36 -81 18 -147
83 -154 152 -6 52 7 80 50 106 41 25 58 25 109 -1z"/>
<path d="M2155 7707 c-33 -39 -90 -128 -83 -131 2 -1 19 -12 38 -26 198 -139
330 -230 335 -230 3 0 15 -9 27 -19 22 -21 256 -182 316 -218 43 -26 101 -29
140 -9 62 32 142 154 142 215 0 23 -8 31 -50 49 -65 28 -69 28 -77 -8 -6 -32
-49 -70 -78 -70 -15 0 -130 74 -289 185 -24 17 -70 48 -102 71 -32 22 -82 57
-111 77 -113 79 -185 127 -191 127 -4 -1 -12 -6 -17 -13z"/>
<path d="M8645 7206 c-16 -7 -55 -22 -85 -33 -30 -12 -107 -40 -170 -63 -63
-24 -133 -49 -155 -56 -22 -8 -48 -19 -57 -24 -10 -6 -23 -10 -30 -10 -7 0
-25 -6 -40 -14 -15 -8 -41 -17 -58 -21 -36 -8 -36 -12 1 -111 21 -56 21 -56
58 -51 39 5 147 42 165 56 6 4 22 11 36 14 14 3 50 15 80 27 77 32 142 36 194
14 80 -35 117 -101 96 -171 -14 -47 -49 -69 -199 -124 -58 -22 -113 -43 -121
-46 -8 -3 -49 -18 -90 -33 -74 -27 -75 -27 -74 -62 1 -19 12 -57 25 -84 13
-27 24 -50 24 -51 1 -2 26 7 56 18 30 11 70 25 89 31 19 5 40 15 47 20 7 6 27
14 45 18 18 5 66 20 107 34 70 24 77 25 122 12 98 -29 145 -86 136 -162 -7
-62 -32 -79 -212 -145 -44 -16 -89 -33 -100 -38 -11 -5 -55 -22 -98 -37 -83
-29 -96 -42 -79 -77 5 -12 17 -43 27 -69 12 -34 22 -48 35 -48 10 0 22 5 25
10 3 6 15 10 27 10 11 0 34 7 51 15 35 15 103 41 154 56 18 5 35 14 38 19 4 6
15 10 27 10 11 0 34 6 51 14 18 8 57 25 87 39 96 42 160 121 160 196 0 39 -35
127 -67 169 -29 39 -109 92 -139 92 -37 0 -47 23 -21 50 47 50 57 74 57 136 0
37 -6 67 -15 80 -8 10 -15 26 -15 35 0 31 -96 124 -153 148 -47 20 -54 26 -42
37 7 8 23 14 35 14 31 0 60 18 60 37 0 26 -44 133 -55 133 -5 0 -23 -6 -40
-14z"/>
<path d="M2260 7151 c-151 -50 -259 -204 -262 -372 -2 -106 22 -167 96 -246
69 -75 138 -112 224 -123 162 -21 281 33 367 165 38 58 75 170 75 225 0 48
-35 161 -58 190 l-18 22 -44 -52 -44 -52 13 -52 c16 -66 16 -91 1 -146 -15
-53 -42 -85 -90 -110 -47 -23 -88 -30 -130 -21 -44 9 -43 16 16 138 24 51 44
95 44 98 0 5 33 79 81 182 48 103 48 108 -3 134 -34 18 -63 23 -143 25 -55 2
-111 0 -125 -5z m114 -161 l25 -9 -36 -83 c-78 -177 -118 -258 -129 -258 -42
0 -104 96 -104 161 0 127 134 231 244 189z"/>
<path d="M1841 6418 c-4 -13 -11 -46 -15 -73 l-6 -50 92 -50 c50 -28 135 -73
187 -102 164 -89 192 -103 206 -103 8 0 19 -8 24 -19 9 -17 5 -20 -36 -31 -26
-6 -99 -15 -163 -20 -63 -5 -133 -14 -155 -19 -22 -6 -79 -13 -128 -16 -100
-8 -99 -7 -117 -104 -15 -84 -11 -92 37 -80 21 6 72 14 113 20 41 5 107 16
145 24 89 18 180 33 274 45 61 8 181 37 181 43 0 1 7 40 15 87 l15 85 -30 26
c-16 14 -49 36 -72 48 -45 24 -74 41 -179 105 -183 111 -351 206 -364 206 -9
0 -19 -10 -24 -22z"/>
<path d="M1985 5633 c-11 -3 -48 -18 -82 -35 -142 -67 -207 -210 -184 -398 12
-92 39 -148 101 -210 76 -77 117 -93 247 -98 109 -4 115 -3 177 26 79 37 145
102 182 180 38 79 44 200 15 290 -25 78 -70 144 -124 183 l-41 30 -18 -23 c-9
-13 -20 -45 -23 -71 -7 -45 -5 -51 25 -80 46 -45 70 -98 70 -155 0 -87 -66
-172 -146 -188 l-31 -6 -11 174 c-7 95 -14 217 -17 271 -2 54 -7 102 -10 108
-6 9 -93 11 -130 2z m39 -205 c3 -13 6 -98 6 -189 0 -187 -1 -189 -66 -159
-100 45 -140 128 -117 241 16 80 160 168 177 107z"/>
<path d="M8406 5523 c-3 -21 -6 -61 -6 -89 l0 -51 38 -7 c20 -3 82 -6 137 -6
149 0 145 2 144 -84 -2 -129 7 -118 -180 -214 l-167 -85 -5 -71 c-3 -39 -8
-81 -12 -92 -5 -14 -2 -23 9 -27 15 -6 180 70 282 131 83 49 85 48 117 -9 45
-79 169 -149 265 -149 53 0 143 30 197 66 74 49 114 116 131 222 13 85 34 420
27 435 -2 4 -46 7 -97 7 -51 0 -117 5 -147 10 -29 6 -148 15 -264 20 -116 5
-235 14 -264 20 -30 5 -86 10 -126 10 l-72 0 -7 -37z m805 -202 c11 -13 -8
-236 -24 -273 -44 -103 -210 -119 -292 -28 -18 21 -20 34 -17 163 2 78 6 145
9 150 6 10 315 -1 324 -12z"/>
<path d="M2005 4769 c-137 -44 -235 -110 -290 -194 -55 -83 -68 -127 -69 -245
-1 -104 11 -164 59 -290 22 -58 46 -132 56 -177 9 -37 14 -43 37 -43 15 1 38
7 52 15 14 8 33 14 43 15 11 0 33 6 50 14 18 7 73 26 122 42 50 15 97 31 105
35 8 4 49 17 90 29 41 12 91 27 110 34 78 29 107 38 143 47 21 5 45 14 55 19
9 5 36 14 59 20 22 6 51 18 62 28 l21 17 -60 184 c-73 218 -93 262 -157 328
-68 70 -111 100 -178 123 -79 27 -226 27 -310 -1z m304 -194 c50 -26 115 -89
124 -120 3 -11 19 -58 36 -105 17 -47 31 -89 31 -95 0 -13 -31 -25 -145 -61
-49 -15 -97 -31 -105 -35 -8 -3 -76 -26 -150 -49 -74 -24 -139 -46 -145 -50
-5 -4 -27 -10 -47 -14 -37 -7 -37 -7 -48 36 -6 24 -18 61 -28 83 -12 28 -17
67 -17 135 0 86 3 99 28 141 34 58 46 69 127 113 111 60 247 69 339 21z"/>
<path d="M8395 4742 c-22 -11 -57 -37 -77 -58 -66 -70 -99 -219 -63 -288 8
-15 15 -37 15 -47 0 -10 5 -21 10 -24 6 -3 10 -13 10 -21 0 -10 -13 -14 -50
-14 -62 0 -96 -32 -106 -99 -7 -48 8 -71 50 -71 12 -1 32 -7 46 -15 22 -12 27
-11 42 2 24 22 105 5 215 -43 17 -8 38 -14 46 -14 8 0 31 -7 50 -15 89 -37
194 -8 269 74 53 58 70 90 99 191 22 74 25 193 6 230 -13 26 -50 36 -92 26
-22 -6 -22 -10 -22 -113 1 -116 -8 -149 -61 -205 -40 -43 -82 -53 -141 -33
l-49 16 33 55 c137 228 74 467 -128 481 -47 3 -72 -1 -102 -15z m145 -172 c56
-40 57 -152 3 -251 -38 -70 -43 -73 -99 -51 -62 24 -89 70 -88 152 2 129 101
209 184 150z"/>
<path d="M8088 4083 c-8 -10 -29 -42 -47 -72 -37 -61 -42 -52 71 -122 82 -50
84 -52 93 -113 3 -27 9 -54 11 -60 5 -12 -175 -34 -321 -39 l-60 -2 -36 -55
c-21 -30 -39 -66 -42 -79 -5 -23 -3 -23 47 -17 28 3 98 8 156 11 58 3 144 7
192 10 87 5 88 5 101 -23 8 -15 17 -44 21 -66 4 -21 11 -46 16 -55 5 -9 14
-36 20 -61 35 -133 44 -160 55 -160 6 0 25 21 41 48 53 83 58 98 46 129 -5 15
-16 49 -22 76 -7 26 -17 50 -21 53 -5 3 -9 20 -9 37 -1 18 -7 43 -15 57 -8 14
-14 33 -15 42 0 9 -5 29 -11 45 -13 31 -20 73 -13 73 3 0 63 -36 133 -80 71
-44 132 -80 135 -80 3 0 27 -15 53 -34 27 -18 81 -52 121 -76 59 -35 75 -40
87 -30 23 19 77 119 72 133 -2 7 -51 41 -108 76 -57 35 -127 79 -156 97 -28
19 -54 34 -56 34 -3 0 -38 22 -79 48 -40 27 -80 52 -88 56 -8 3 -41 23 -72 44
-78 50 -276 172 -281 172 -2 0 -11 -8 -19 -17z"/>
<path d="M2765 3685 c-27 -6 -66 -20 -85 -30 -45 -23 -132 -91 -145 -114 -5
-9 -22 -33 -36 -52 -14 -19 -33 -57 -43 -86 -60 -190 60 -373 257 -392 l58 -6
-93 -77 c-51 -42 -121 -99 -156 -128 -71 -58 -71 -55 3 -138 l47 -52 26 19
c15 10 39 31 55 45 15 14 70 59 121 100 52 41 97 80 101 85 3 6 38 35 78 65
40 30 86 67 102 83 17 16 50 44 75 63 87 67 210 174 210 183 0 8 -44 68 -81
111 -5 6 -21 -3 -37 -21 -53 -55 -59 -51 -58 40 1 92 -16 136 -80 207 -48 52
-86 75 -162 94 -73 18 -88 18 -157 1z m191 -197 c75 -39 112 -128 93 -219 -9
-42 -18 -52 -89 -108 -77 -59 -81 -61 -140 -61 -100 0 -173 50 -191 131 -23
99 24 191 131 262 39 25 145 22 196 -5z"/>
<path d="M7700 3421 c-8 -4 -31 -11 -50 -15 -67 -12 -178 -101 -225 -181 -53
-91 -73 -225 -39 -259 14 -14 19 -13 52 8 20 13 47 26 58 30 19 6 22 16 26 76
3 59 8 74 34 107 17 21 48 48 70 60 66 38 173 27 213 -21 11 -13 -17 -44 -183
-207 -108 -106 -196 -198 -196 -205 0 -21 92 -95 149 -120 44 -20 70 -24 148
-24 119 0 179 25 264 109 86 86 109 144 109 270 0 108 -9 137 -72 227 -38 54
-136 122 -195 135 -69 16 -146 21 -163 10z m280 -359 c25 -55 25 -59 0 -116
-40 -89 -133 -148 -211 -132 -45 9 -99 36 -99 50 0 7 59 70 130 140 145 142
143 142 180 58z"/>
<path d="M3375 3104 c-11 -3 -30 -7 -42 -10 -32 -6 -28 -30 13 -80 l35 -44 69
0 c99 0 163 -38 206 -122 29 -57 30 -83 4 -142 l-19 -46 -63 43 c-34 23 -69
48 -76 55 -8 7 -40 31 -71 52 -31 22 -99 71 -151 109 l-95 69 -27 -26 c-15
-14 -42 -59 -59 -101 -28 -68 -31 -83 -27 -156 3 -54 10 -89 21 -105 9 -14 17
-32 17 -41 0 -27 128 -148 184 -174 28 -13 78 -29 112 -36 52 -11 70 -10 128
5 111 28 209 102 254 194 36 71 55 152 49 203 -7 60 -46 157 -78 196 -37 45
-119 108 -170 131 -45 20 -173 36 -214 26z m65 -440 c25 -18 64 -48 88 -65
l43 -32 -23 -25 c-72 -78 -216 -64 -285 27 -35 45 -44 141 -19 190 l17 31 67
-46 c37 -26 87 -62 112 -80z"/>
<path d="M7038 2936 c-42 -15 -92 -56 -150 -123 -38 -44 -38 -46 -21 -65 10
-11 35 -34 55 -50 l38 -29 38 40 c69 73 104 57 196 -89 26 -41 65 -100 87
-130 21 -30 39 -62 39 -70 0 -8 -22 -28 -49 -44 -27 -16 -52 -37 -54 -47 -6
-24 43 -99 65 -99 9 0 37 14 61 30 44 30 77 39 77 21 0 -7 100 -163 114 -178
3 -3 118 75 134 91 11 11 3 29 -49 106 l-62 93 23 19 c13 10 30 23 39 28 13 7
14 12 2 34 -8 14 -26 40 -41 58 l-27 32 -28 -22 c-47 -37 -40 -43 -170 158
-105 164 -137 208 -163 226 -32 21 -110 27 -154 10z"/>
<path d="M6605 2704 c-54 -28 -125 -91 -125 -110 0 -6 -6 -17 -14 -23 -8 -7
-18 -26 -21 -42 -8 -36 -16 -36 -37 0 -25 45 -79 58 -143 34 -56 -21 -63 -36
-41 -85 8 -18 17 -43 21 -55 3 -13 17 -26 31 -29 29 -7 40 -27 100 -178 25
-61 52 -118 60 -127 7 -8 14 -20 14 -25 0 -15 60 -68 100 -88 29 -15 54 -17
135 -15 93 4 106 7 179 43 76 39 196 142 196 170 0 14 -14 32 -53 65 l-27 25
-49 -55 c-64 -72 -151 -119 -219 -119 -45 0 -54 4 -91 41 -22 23 -41 47 -41
54 0 8 -3 20 -6 29 -5 12 1 16 23 16 39 0 156 37 202 64 59 34 76 48 114 99
35 46 37 53 37 123 0 84 -11 113 -62 160 -50 47 -69 54 -155 54 -65 0 -87 -4
-128 -26z m134 -130 c31 -12 43 -24 52 -51 17 -52 -3 -112 -47 -143 -74 -50
-198 -76 -223 -46 -20 24 -24 99 -8 138 17 40 70 87 119 105 45 16 61 16 107
-3z"/>
<path d="M4210 2623 c-14 -20 -52 -69 -85 -109 -33 -39 -91 -111 -130 -159
-38 -49 -96 -120 -129 -159 -32 -39 -66 -82 -75 -96 -8 -14 -43 -57 -76 -95
-33 -39 -71 -87 -85 -108 -14 -20 -28 -37 -32 -37 -5 0 -8 -7 -8 -15 0 -8 7
-15 15 -15 9 0 41 -9 72 -20 32 -11 67 -20 80 -20 17 0 56 45 177 208 160 215
224 300 290 385 l40 51 12 -30 c7 -18 13 -89 15 -175 l3 -144 -107 -140 c-59
-77 -119 -155 -135 -174 -41 -52 -36 -63 38 -83 36 -9 70 -17 77 -18 6 0 35
34 65 75 133 189 141 199 149 179 4 -11 8 -88 8 -172 1 -113 4 -153 14 -156 6
-2 35 -11 62 -20 93 -30 89 -37 81 129 -4 80 -11 171 -17 202 -17 91 -9 111
96 247 53 69 100 128 105 131 17 10 29 -102 35 -335 3 -129 10 -255 15 -280 5
-25 9 -77 10 -117 0 -81 4 -86 75 -98 22 -4 55 -13 73 -22 19 -8 36 -12 39 -9
3 3 1 40 -5 83 -6 43 -16 139 -22 213 -24 314 -41 494 -50 533 -5 23 -10 79
-10 124 0 94 -8 108 -72 118 -23 4 -51 13 -61 19 -16 9 -26 3 -73 -49 -30 -33
-54 -63 -54 -67 0 -6 -113 -145 -162 -198 l-23 -25 -7 45 c-5 25 -12 104 -18
175 -17 230 -13 220 -90 248 -70 26 -91 22 -120 -20z"/>
<path d="M5751 2463 l-44 -4 7 -69 c3 -38 11 -81 16 -96 10 -26 12 -26 68 -19
31 4 61 12 65 19 8 11 0 153 -10 169 -4 7 -19 7 -102 0z"/>
</g>
</svg>
