<svg id="12" viewBox="0 0 1823 696" xmlns="http://www.w3.org/2000/svg" xmlns:xlink="http://www.w3.org/1999/xlink"><g transform="matrix(1,0,0,1,0,0)"><g id="12" opacity="1" style="mix-blend-mode:normal"><g><defs><clipPath id="12_clipPath" x="-50%" y="-50%" width="200%" height="200%"><path d="M0,696v-696h1823v696z" fill="white" clip-rule="nonzero"></path></clipPath></defs><g clip-path="url(#12_clipPath)"><path id="12_fill_path" d="M0,696v-696h1823v696z" fill-rule="nonzero" fill="rgb(255, 255, 255)" fill-opacity="0" style="mix-blend-mode:NORMAL"></path><g transform="matrix(1,0,0,1,1396,424)"><g id="25" opacity="0" style="mix-blend-mode:normal"><g><defs><clipPath id="25_clipPath" x="-50%" y="-50%" width="200%" height="200%"><path d="M0,276v-276h283v276z" fill="white" clip-rule="nonzero"></path></clipPath></defs><g clip-path="url(#25_clipPath)"><g transform="matrix(1,0,0,1,14.7659,143.7266)"><g id="26" opacity="1" style="mix-blend-mode:normal"><g><g><path id="26_fill_path" d="M34.37009,6.6437c-14.47858,-2.04956 -20.67908,-7.49784 -27.7792,-6.52946c-5.03059,0.68632 -11.54575,8.11364 -0.71405,24.51015c9.00423,13.63242 22.24433,23.09048 36.25495,28.51995c2.41646,0.93547 5.03866,1.72521 7.55194,1.65939c-6.45868,-14.24352 -12.02178,-32.38873 -15.31365,-48.16002z" fill-rule="nonzero" fill="rgb(255, 255, 255)" fill-opacity="1" style="mix-blend-mode:NORMAL"></path></g></g></g></g><g transform="matrix(1,0,0,1,-0.0023,128.3965)"><g id="27" opacity="1" style="mix-blend-mode:normal"><g><g><path id="27_fill_path" d="M5.11765,40.21299c-1.03678,0 -2.02515,-0.70512 -2.46487,-1.88033c-4.06643,-10.90123 -2.71095,-19.29222 -0.85928,-24.41142c2.23492,-6.17219 6.39414,-11.02345 11.71115,-13.67002c1.36354,-0.67692 2.9409,0.0611 3.52182,1.64998c0.58092,1.58888 -0.05244,3.42691 -1.41599,4.10383c-4.03012,2.00256 -7.1808,5.67861 -8.87111,10.34654c-2.10179,5.80553 -1.8194,12.36318 0.83507,19.48495c0.59302,1.58418 -0.03227,3.42691 -1.39178,4.11793c-0.34694,0.17863 -0.71001,0.25854 -1.06905,0.25854z" fill-rule="nonzero" fill="rgb(255, 255, 255)" fill-opacity="1" style="mix-blend-mode:NORMAL"></path></g></g></g></g><g transform="matrix(1,0,0,1,12.0822,140.59)"><g id="28" opacity="1" style="mix-blend-mode:normal"><g><g><path id="28_fill_path" d="M52.08505,61.07099c-3.05386,0 -6.07947,-1.03418 -8.12076,-1.82392c-11.03341,-4.27776 -26.50036,-12.88028 -37.53377,-29.58234c-7.32602,-11.08926 -7.07994,-18.33794 -5.5873,-22.46997c1.67014,-4.61622 5.28878,-6.67049 8.11672,-7.05595c4.21973,-0.5782 7.92711,0.73333 12.62287,2.39272c4.01802,1.41965 9.01633,3.18246 15.79371,4.14143l1.84361,0.26325l0.43972,2.10598c3.4371,16.46702 9.07282,34.20326 15.07564,47.43611l2.03321,4.47989l-4.34479,0.11282c-0.11296,0 -0.22591,0 -0.33887,0zM10.97298,6.26398c-0.46393,0 -0.92382,0.02821 -1.38775,0.09402c-1.32724,0.17863 -3.02158,1.1376 -3.79614,3.27178c-0.77052,2.12478 -1.1578,7.06065 4.89343,16.21787c10.20641,15.45164 24.65271,23.46186 34.97208,27.46227c0.58899,0.22564 1.27076,0.47948 2.00901,0.70982c-5.05883,-12.27387 -9.68197,-27.22722 -12.7802,-41.42374c-6.30135,-1.05769 -11.0092,-2.72178 -14.86182,-4.08032c-3.6267,-1.27863 -6.39414,-2.25639 -9.05668,-2.25639z" fill-rule="nonzero" fill="rgb(255, 255, 255)" fill-opacity="1" style="mix-blend-mode:NORMAL"></path></g></g></g></g><g transform="matrix(1,0,0,1,109.5425,131.8902)"><g id="29" opacity="1" style="mix-blend-mode:normal"><g><g><path id="29_fill_path" d="M36.86906,9.6284c-2.08566,0.11752 -4.18745,0.11753 -6.27714,-0.07991c-0.52041,-0.05171 -1.05291,-0.07522 -1.56928,-0.15043l-1.56525,-0.21154c-0.52444,-0.06581 -1.04081,-0.15982 -1.56122,-0.25383c-0.52041,-0.08932 -1.04081,-0.18333 -1.55315,-0.29615c-2.06952,-0.41367 -4.1108,-0.95427 -6.09964,-1.45256c-1.9848,-0.49359 -3.91313,-0.97307 -5.69622,-1.1282l-0.66565,-0.04701c-0.10892,-0.0047 -0.22187,-0.01881 -0.33079,-0.02351l-0.32274,0.00941h-0.64547c-0.21381,0 -0.42358,0.0376 -0.63335,0.05641l-0.31466,0.0282l-0.15734,0.0141h-0.08069l-0.06051,0.01881l-0.24205,0.04231l-0.24204,0.0658c-0.32273,0.10342 -0.65354,0.22095 -0.96013,0.39018c-0.61723,0.33376 -1.17798,0.79914 -1.60964,1.38205c-0.44376,0.5688 -0.77455,1.24571 -0.98836,2.01665c-0.21381,0.77094 -0.31063,1.64059 -0.28642,2.57136c0.0242,0.93076 0.1654,1.90854 0.38728,2.89571c0.42762,1.98845 1.21428,3.99571 2.14617,5.94186c0.95206,1.94144 2.01707,3.85938 3.23135,5.69741l0.89558,1.38675l0.94803,1.33973c0.32273,0.44188 0.62126,0.90726 0.95609,1.33974l0.99644,1.30214c1.33127,1.73461 2.7634,3.3705 4.23586,4.96408c0.73825,0.79444 1.50474,1.55127 2.25913,2.33161c0.78666,0.73333 1.55718,1.49017 2.35595,2.2094c3.19505,2.88631 6.59584,5.49527 10.14993,7.84099c3.55006,2.35512 7.24938,4.44229 11.05762,6.30382c-7.9957,-2.37392 -15.76548,-6.1722 -22.83736,-11.45124c-3.53795,-2.63247 -6.8742,-5.6786 -9.95629,-9.07731l-1.14974,-1.28333c-0.38324,-0.42778 -0.73825,-0.88846 -1.10939,-1.33503l-1.09325,-1.35384l-1.04081,-1.41025c-0.70194,-0.93076 -1.37565,-1.90852 -2.02918,-2.9098c-0.65353,-1.00598 -1.2748,-2.04487 -1.85169,-3.13546c-1.15377,-2.18119 -2.20667,-4.50809 -2.88844,-7.14996c-0.3308,-1.32093 -0.57689,-2.71239 -0.64951,-4.17905c-0.07261,-1.46666 0.03631,-3.01324 0.41956,-4.54101c0.37518,-1.52307 1.03274,-3.00853 1.95253,-4.24015c0.90768,-1.24572 2.04935,-2.2235 3.28783,-2.91452c0.62126,-0.34786 1.27076,-0.6111 1.94447,-0.80384l0.50831,-0.12692l0.5204,-0.09402l0.1291,-0.0235l0.11296,-0.00941l0.22591,-0.01879l0.45586,-0.03291c1.21428,-0.11282 2.40839,0.0094 3.56215,0.19274c0.29449,0.03291 0.56478,0.11752 0.84718,0.17863l0.83911,0.20213c0.54058,0.15983 1.07711,0.32905 1.60559,0.50768c0.51234,0.19273 1.03678,0.37138 1.54105,0.58291l1.49264,0.62991c1.9606,0.86495 3.84455,1.7675 5.74463,2.61835c3.78807,1.75341 7.65683,3.22948 11.65468,4.68204z" fill-rule="nonzero" fill="rgb(255, 255, 255)" fill-opacity="1" style="mix-blend-mode:NORMAL"></path></g></g></g></g><g transform="matrix(1,0,0,1,86.8502,79.1449)"><g id="210" opacity="1" style="mix-blend-mode:normal"><g><g><path id="210_fill_path" d="M2.84517,21.48583c0.94803,2.18589 2.50521,4.49399 4.607,4.40938c1.20218,-0.04701 2.29947,-0.92606 3.01351,-2.05896c0.71405,-1.1329 1.10133,-2.49144 1.41599,-3.84998c1.28286,-5.52348 1.06501,-22.07511 -7.45915,-19.767c-7.43091,2.01196 -3.72353,16.31659 -1.57736,21.26657z" fill-rule="nonzero" fill="rgb(255, 255, 255)" fill-opacity="1" style="mix-blend-mode:NORMAL"></path></g></g></g></g><g transform="matrix(1,0,0,1,56.2651,85.0807)"><g id="211" opacity="1" style="mix-blend-mode:normal"><g><g><path id="211_fill_path" d="M8.84616,19.77143c-0.87138,2.01196 -2.3035,4.13673 -4.23989,4.05681c-1.10939,-0.04701 -2.1139,-0.85555 -2.77146,-1.89444c-0.65757,-1.03888 -1.01258,-2.29401 -1.30304,-3.53973c-1.18201,-5.0816 -0.9803,-20.317 6.8621,-18.19222c6.83789,1.85213 3.42499,15.01446 1.45229,19.56957z" fill-rule="nonzero" fill="rgb(255, 255, 255)" fill-opacity="1" style="mix-blend-mode:NORMAL"></path></g></g></g></g><g transform="matrix(1,0,0,1,73.1503,120.1354)"><g id="212" opacity="1" style="mix-blend-mode:normal"><g><g><path id="212_fill_path" d="M0.0454,7.0127c0.39938,3.62904 1.13763,4.5034 1.50877,7.3427c0.3308,2.52435 0.25415,4.36237 0.53654,6.13929c0.25819,1.64059 1.34337,2.68418 2.33981,2.94273c3.7679,0.96837 6.34976,-4.07093 7.09204,-7.35681c1.84361,-8.14184 -0.12909,-17.67042 -7.8545,-15.8559c-2.67868,0.62991 -3.92926,3.99101 -3.62267,6.788z" fill-rule="nonzero" fill="rgb(255, 255, 255)" fill-opacity="1" style="mix-blend-mode:NORMAL"></path></g></g></g></g><g transform="matrix(1,0,0,1,163.0538,55.1126)"><g id="213" opacity="1" style="mix-blend-mode:normal"><g><g><path id="213_fill_path" d="M50.87337,177.8325c-2.29543,-22.22084 2.76743,-20.02556 19.53741,-24.05887c17.45982,-4.19784 37.2756,-9.84824 34.50414,-25.83577c-4.18745,-24.15288 -59.02776,-14.61488 -76.48758,-42.66945c-13.94204,-22.39947 -15.92281,-62.051 -23.62401,-84.89704c-0.21784,-0.12222 -1.654,-0.24914 -1.87184,-0.37137c6.5555,45.36303 3.15066,66.37577 13.85731,88.5778c5.60344,11.62046 14.00659,19.7623 24.82216,24.10587c17.43158,6.99484 34.08055,8.82345 34.2056,16.34008c0.10489,6.29912 -23.54333,8.39099 -29.69945,10.31833c-4.68365,1.46666 -8.68957,1.53717 -12.42117,5.14271c-2.86022,2.75939 -3.12243,7.3615 -0.89961,13.48198c1.44826,3.98161 7.37846,19.61657 4.46984,25.06953c-6.41431,12.01063 -32.52739,-8.35808 -37.26349,29.49302c-0.0121,0.08461 0.02017,0.16924 0.02824,0.24916c3.16278,-4.81365 4.69979,-11.97773 12.32434,-16.22258c9.14543,-5.0863 41.70912,12.10935 38.52214,-18.72811z" fill-rule="nonzero" fill="rgb(230, 231, 232)" fill-opacity="1" style="mix-blend-mode:NORMAL"></path></g></g></g></g><g transform="matrix(1,0,0,1,269.1039,161.3391)"><g id="214" opacity="1" style="mix-blend-mode:normal"><g><g><path id="214_fill_path" d="M10.21294,35.55531c-0.26222,0 -0.53252,-0.04702 -0.79474,-0.14103c-1.41599,-0.51239 -2.20666,-2.26579 -1.77098,-3.91579c1.0045,-3.77947 1.14973,-7.80338 0.42762,-11.95892c-0.94399,-5.45297 -3.35238,-10.182 -7.15659,-14.05549c-1.11746,-1.1376 -1.23042,-3.11196 -0.25415,-4.41409c0.97627,-1.30213 2.67059,-1.43376 3.78805,-0.29615c4.71189,4.79485 7.70121,10.6944 8.88725,17.52941c0.89962,5.19442 0.71,10.25723 -0.56479,15.05207c-0.35501,1.33974 -1.42001,2.20468 -2.56168,2.20468z" fill-rule="nonzero" fill="rgb(255, 255, 255)" fill-opacity="1" style="mix-blend-mode:NORMAL"></path></g></g></g></g><g transform="matrix(1,0,0,1,191.9483,27.1464)"><g id="215" opacity="1" style="mix-blend-mode:normal"><g><g><path id="215_fill_path" d="M2.6835,20.3837c-0.29046,0 -0.58898,-0.05641 -0.87944,-0.17393c-1.39985,-0.5688 -2.14214,-2.35042 -1.65401,-3.98161c0.39535,-1.32563 1.5814,-6.12988 0.31064,-12.37729c-0.3429,-1.6829 0.54865,-3.3658 1.99287,-3.76537c1.44423,-0.39957 2.88845,0.63931 3.23135,2.32221c1.56122,7.67646 0.19768,13.65592 -0.46393,15.87471c-0.38324,1.29273 -1.42406,2.10127 -2.53749,2.10127z" fill-rule="nonzero" fill="rgb(255, 255, 255)" fill-opacity="1" style="mix-blend-mode:NORMAL"></path></g></g></g></g><g transform="matrix(1,0,0,1,40.5558,0.0001)"><g id="216" opacity="1" style="mix-blend-mode:normal"><g><g><path id="216_fill_path" d="M113.23423,275.99985c-6.32556,0 -15.34593,-3.06024 -28.62637,-9.6602c-14.0913,-7.00424 -27.18617,-17.64693 -38.92153,-31.63661c-11.20285,-13.35506 -20.70732,-29.19217 -28.25522,-47.06473c-7.47932,-17.71274 -12.63901,-36.48316 -15.33786,-55.78478c-2.77953,-19.90802 -2.79164,-39.39767 -0.03227,-57.93305c2.4568,-16.51402 8.504,-31.00669 17.97216,-43.07843c8.63713,-11.01405 20.00134,-19.61657 32.86626,-24.8768c14.32125,-5.85724 29.84065,-7.44142 44.87191,-4.57391c15.74127,2.99913 30.09076,10.79311 41.49128,22.53109c3.99381,4.11323 6.05123,9.96106 5.36946,15.2636c-0.52847,4.10383 -2.67868,7.43672 -5.89793,9.14312c-3.43307,1.81922 -7.49143,1.47136 -11.05762,0.45128c4.08256,9.23243 6.57567,22.17383 9.331,36.51606c3.57426,18.58709 7.62456,39.65153 16.08821,53.25103c8.17723,13.14353 26.09694,17.66102 41.90679,21.64733c16.76998,4.23075 32.61212,8.22645 35.04068,22.23493c1.49667,8.63543 -2.23896,15.62087 -11.102,20.75888c-7.15659,4.14613 -16.91117,6.69869 -25.49181,8.76236c-2.14214,0.51709 -4.1108,0.93546 -5.84952,1.30213c-5.46628,1.16111 -9.07686,1.92734 -10.62597,4.02862c-1.54912,2.10127 -1.83149,6.67048 -0.93994,15.2871c0.78666,7.61065 -0.41956,13.39266 -3.59041,17.18154c-5.59537,6.69398 -15.59604,5.59871 -24.41874,4.63034c-4.85309,-0.53119 -9.86754,-1.08119 -12.02581,0.11752c-4.81275,2.67477 -6.83789,6.72687 -8.79445,10.64737c-2.25913,4.5269 -4.82485,9.65551 -11.44893,10.67089c-0.79069,0.12222 -1.63383,0.18334 -2.52941,0.18334zM82.98612,6.2661c-9.49237,0 -19.09365,1.83332 -28.30766,5.60339c-25.66933,10.50166 -42.91938,33.50753 -47.32871,63.12277c-10.98097,73.76546 25.36273,158.75651 79.36393,185.58886c13.84522,6.87732 23.11571,9.83412 28.34801,9.03028c3.83245,-0.5876 5.21212,-3.01791 7.50756,-7.61533c2.14617,-4.29656 4.81678,-9.63672 11.12217,-13.14824c3.49358,-1.94144 8.75009,-1.36794 14.84166,-0.70042c7.62455,0.83675 16.26167,1.78161 20.06991,-2.7688c1.98077,-2.36922 2.68676,-6.42603 2.10584,-12.06703c-0.96013,-9.27944 -0.92382,-15.87942 2.19862,-20.11486c2.79164,-3.78417 7.14448,-4.70553 13.73629,-6.10638c1.70645,-0.36196 3.64284,-0.77565 5.72447,-1.27394c17.60909,-4.23545 34.6211,-9.43457 32.41441,-22.15032c-1.73469,-9.99867 -15.90666,-13.576 -30.91372,-17.36017c-16.74981,-4.22605 -35.73453,-9.01149 -45.11798,-24.09176c-9.11316,-14.64309 -13.99045,-36.21521 -16.98379,-55.55443c-5.83742,-37.72888 -18.25859,-49.81942 -18.25859,-49.81942c0,0 16.0035,8.64013 22.99872,5.79143c2.06952,-0.84145 2.63027,-2.96153 2.81181,-4.37178c0.40745,-3.17776 -1.01257,-6.96663 -3.6146,-9.65081c-14.17199,-14.59138 -33.20514,-22.34305 -52.72238,-22.34305z" fill-rule="nonzero" fill="rgb(255, 255, 255)" fill-opacity="1" style="mix-blend-mode:NORMAL"></path></g></g></g></g></g></g></g></g></g></g></g></g><animateTransform href="#25" attributeName="transform" type="translate" values="0 0;0 0;0 -365.70138;0 -246.88199999999998;0 -285.43644;0 -272.91432000000003;0 -276;-1396 -276;0 -276;0 -276" dur="5s" repeatCount="indefinite" calcMode="spline" keyTimes="0;0.24;0.27;0.31;0.34;0.38;0.4;0.79;0.95;1" keySplines="0.33 0 0.67 1;0.33 0 0.67 1;0.33 0 0.67 1;0.33 0 0.67 1;0.33 0 0.67 1;0.33 0 0.67 1;0.33 0 0.15 1;0.5 0.35 0.15 1;0.5 0.35 0.15 1" additive="sum" fill="freeze"></animateTransform><animate href="#25" attributeName="opacity" values="0;0;1.325;0.8945;1.0342;0.9888;1;1" dur="5s" repeatCount="indefinite" calcMode="spline" keyTimes="0;0.24;0.27;0.31;0.34;0.38;0.4;1" keySplines="0.33 0 0.67 1;0.33 0 0.67 1;0.33 0 0.67 1;0.33 0 0.67 1;0.33 0 0.67 1;0.33 0 0.67 1;0.33 0 0.67 1" additive="sum" fill="freeze"></animate></svg>